<?xml version="1.0"?>
<svg width="600" height="600" xmlns="http://www.w3.org/2000/svg" xmlns:svg="http://www.w3.org/2000/svg" xmlns:xlink="http://www.w3.org/1999/xlink">
 <!-- Created with SVG-edit - https://github.com/SVG-Edit/svgedit-->
 <defs>
  <symbol enable-background="new 0 0 56.69 56.69" id="svg_2" version="1.1" viewBox="0 0 56.69 56.69" x="0px" xml:space="preserve" xmlns="http://www.w3.org/2000/svg" xmlns:xlink="http://www.w3.org/1999/xlink" y="0px">
   <style type="text/css">.st0{fill:#58595B;}</style>
   <g>
    <g>
     <polygon class="st0" points="25.03,10.45 32.27,14.06 30.73,16.82 23.49,13.21   "/>
    </g>
    <g>
     <polygon class="st0" points="37.63,16.73 44.86,20.33 43.32,23.09 36.08,19.49   "/>
    </g>
    <g>
     <polygon class="st0" points="34,12.68 37.85,14.6 34,21.5 30.14,19.58   "/>
    </g>
    <g>
     <path class="st0" d="m32.71,23.81l-3.86,-1.92c0.57,-1.04 1.9,-1.47 2.97,-0.94c1.07,0.52 1.47,1.79 0.9,2.83c0,0.01 -0.01,0.02 -0.01,0.03z"/>
    </g>
   </g>
   <g>
    <path class="st0" d="m11.71,45.83c0.11,-0.15 0.26,-0.27 0.43,-0.35c0.79,-0.37 1.58,-0.31 2.38,0.11c0.56,0.29 1.15,0.54 1.69,0.86c1.95,1.13 3.87,1.09 5.79,-0.09c2.17,-1.33 4.48,-1.6 6.88,-0.73c0.52,0.19 1.02,0.47 1.5,0.75c1.81,1.05 3.62,1.22 5.52,0.19c0.95,-0.52 1.97,-0.95 3,-1.26c0.36,-0.11 1.12,-0.23 1.38,0.31s0.21,1.48 -0.77,1.81c-0.89,0.31 -1.74,0.73 -2.59,1.14c-2.51,1.23 -5.01,1.3 -7.45,-0.15c-2.24,-1.33 -4.38,-1.36 -6.65,0.01c-2.44,1.48 -4.99,1.38 -7.53,0.09c-1.01,-0.52 -2.08,-0.9 -3.13,-1.34c-0.23,-0.09 -0.43,-0.27 -0.53,-0.49c-0.13,-0.23 -0.15,-0.52 0.08,-0.86z"/>
    <path class="st0" d="m11.61,42.41c0.12,-0.25 0.34,-0.43 0.6,-0.53c0.97,-0.36 1.9,-0.14 2.82,0.33c0.81,0.42 1.6,0.92 2.46,1.2c1.47,0.47 2.93,0.3 4.27,-0.51c3.01,-1.83 5.97,-1.73 8.97,0.05c1.59,0.95 3.26,0.95 4.95,0.15c1.1,-0.52 1.78,-0.84 2.94,-1.22c0.3,-0.1 1.27,-0.38 1.54,0.22c0.26,0.6 0.35,1.36 -0.5,1.73c-1.06,0.46 -2.11,0.93 -3.17,1.37c-2.31,0.96 -4.6,0.96 -6.8,-0.28c-1.51,-0.85 -3.05,-1.5 -4.81,-0.97c-0.73,0.22 -1.44,0.57 -2.1,0.95c-2.26,1.28 -4.57,1.22 -6.91,0.29c-1.25,-0.5 -2.47,-1.05 -3.71,-1.58c-0.23,-0.1 -0.43,-0.28 -0.54,-0.51c-0.1,-0.2 -0.13,-0.43 -0.01,-0.69z"/>
    <path class="st0" d="m16.94,37.64c0.02,-0.45 0.49,-0.86 1.75,-1.78c2.27,-1.65 4.47,-3.41 6.67,-5.16c0.56,-0.44 0.98,-0.51 1.57,-0.05c2.67,2.12 5.38,4.18 8.04,6.31c0.31,0.25 0.55,0.75 0.56,1.16c0.04,1.11 0.01,1.87 -0.02,3.29c-0.01,0.44 -0.46,0.9 -2.04,0.9c-1.19,0 -1.48,-0.01 -2.59,-0.69c-3.23,-1.99 -6.22,-1.8 -9.56,0.01c-0.91,0.5 -1.06,0.67 -2.61,0.67c-1.29,0 -1.82,-0.58 -1.79,-1.4c0.03,-0.48 0.02,-2.52 0.02,-3.26z"/>
    <path class="st0" d="m30.15,29.15c0,-1.68 0,-1.64 0,-1.64l3.68,0.11c0,0 -0.13,1.29 0.03,3.29c0.07,0.87 0.29,1.46 0.97,1.96c1.17,0.84 2.3,1.74 3.45,2.6c0.66,0.48 1,1.12 0.48,1.79c-0.5,0.65 -1.19,0.41 -1.77,-0.05c-3.12,-2.4 -6.24,-4.8 -9.35,-7.22c-1.5,-1.17 -1.46,-1.17 -2.91,-0.03c-3.13,2.44 -6.28,4.86 -9.43,7.28c-0.63,0.48 -1.3,0.64 -1.84,-0.09c-0.52,-0.69 -0.04,-1.19 0.48,-1.59c3.67,-2.84 7.36,-5.65 11.02,-8.5c0.87,-0.68 1.59,-0.7 2.44,0.01c0.85,0.7 1.77,1.33 2.75,2.08z"/>
   </g>
  </symbol>
 </defs>
 <g class="layer">
  <title>Layer 1</title>
  <use id="svg_3" transform="matrix(1.444 0 0 1.444 144.058 47.0362)" x="-182.63" xlink:href="#svg_2" y="-142.93"/>
 </g>
</svg>